<?xml version="1.0" encoding="UTF-8"?>
<svg id="Layer_1" xmlns="http://www.w3.org/2000/svg" version="1.1" viewBox="0 0 474.6 42.3">
  <!-- Generator: Adobe Illustrator 29.2.1, SVG Export Plug-In . SVG Version: 2.1.0 Build 116)  -->
  <defs>
    <style>
      .st0 {
        fill: #ccc;
      }

      .st1 {
        fill: #fff;
      }

      .st2 {
        opacity: .9;
      }
    </style>
  </defs>
  <path class="st1" d="M4.1,41.6S88.1.6,249.1,11.6c161,11,225.5,7.3,225.5,7.3"/>
  <g class="st2">
    <g>
      <path class="st0" d="M435.6,15.5c-1.6,0-3.1-.1-4.7-.2.8.2,1.6.5,2.4,1.1,1,.3,1.6-.3,2.4-.9h0Z"/>
      <path class="st0" d="M426.5,15.1h-.8c-.2,0-.5.2-.7.2.5,0,1-.2,1.6-.2h-.1Z"/>
      <path class="st0" d="M418.2,15.7c1.5.2,2.9.1,4.2,0-1.2-.2-2.6-.3-4.2,0Z"/>
      <path class="st0" d="M424.8,16.5c-.5-.4-.8-.9,0-1.2h0c-.8.1-1.6.3-2.5.4.9.2,1.7.5,2.4.8h.1Z"/>
      <path class="st0" d="M424.8,16.5c.5.4,1.3.8,1.5,1-.4-.4-1-.7-1.5-1Z"/>
      <path class="st0" d="M422.6,26.7c-.8.3-.6-2.6-2.3-2-3.9.8-7.2,2-10.9,1.9-1.7.6-4.2-2.6-5.9-2-3.9.7-13.9,4.4-8.1,4.3,4.4-.1,8-.3,11.6-.6,3.5-.2,7-.5,10.9-.7,6.4-1,12.6-2.4,19.2-3.4,1.8-.1,3.6,0,5.3.3-2.3-.5-4.6-.9-7.1-1.3-3.4-.8-7.5,2.8-12.8,3.5h0Z"/>
      <path class="st0" d="M470.4,16.8c-.8.4-2.4,1-2.4,1-3.7-2-7.5-1.1-11.4-.2.6.5,1.1.9,1.7,1.4,2.2-.2,2.5-1,.5-1.6,4.5,1.7,8.8,1.8,13.1,1.4-.3-.8-.3-1.7-1.5-2h0Z"/>
      <path class="st0" d="M474.5,18.5c-.8.1-1.7.2-2.5.4,0,0,0,.2.1.2.9-.2,1.7-.4,2.5-.5h-.1Z"/>
      <path class="st0" d="M400.7,18c-11-.1-21.3-.6-31.4-1.2-.8.5-1.4,1.2-2.4.8-.8-.5-1.5-.9-2.3-1.1-1.5-.1-2.9-.2-4.4-.3-.5,0-1,.1-1.6.2h0c-.8.3-.6.8-.1,1.2.6.3,1.1.7,1.5,1.1-.3-.2-1-.7-1.5-1.1-.7-.4-1.4-.7-2.3-.9-1.4.1-2.8.2-4.2,0,1.6-.3,3-.2,4.2,0,.9,0,1.7-.2,2.5-.3.2,0,.5-.1.7-.2-3.4-.3-6.7-.5-10-.8-.8,0-1.5,0-2.1.1-2.4.3-4.9.6-6.3-.9-.6,0-1.2-.1-1.8-.2.1,0,.2.2.3.3-.3-.1-.5-.2-.7-.3-2.5-.2-5-.5-7.6-.7-1.7.5-3.4,1.1-5.1,1.4,0,0-1.1-1-1.6-1.5-.7.7-1.7,1.1-2.9,1.3,1.3.9,2.5,1.9,3.7,2.6,1.6,1.5,4-2.7,5.8.1-1.9-2.8-4.2,1.4-5.8-.1-1.1-.6-2.3-1.7-3.7-2.6-2.4.4-5.5-.3-7.9-1.8,3.2-1.1,5.7.3,7.9,1.8,1.2-.2,2.2-.6,2.9-1.3.5.5,1.6,1.5,1.6,1.5,1.7-.3,3.4-.9,5.1-1.4-5-.5-10-1-15.1-1.5-8.2-.9-16.3-1.7-24.3-2.4-8-.7-15.9-1.4-23.9-2.1-4-.3-8-.7-12-1-2-.2-4-.3-6.1-.5-2-.2-4.1-.3-6.1-.4-8.2-.6-16.6-1.3-25.2-2-9.3-.5-18.5-1.2-27.6-1.9-4.5-.2-9-.5-13.5-.7-2.2-.1-4.5-.3-6.7-.4-2.2-.1-4.5-.3-6.7-.4-4.4-.2-8.8-.2-13.2-.2s-8.7,0-13,.4c-4.3.3-8.6.6-12.8.9-2.1.2-4.2.3-6.4.5l-6.4.7c-4.2.5-8.5.9-12.8,1.2-4.3.5-8.6.9-12.9,1.3-2.2.2-4.4.3-6.6.4-2.2.2-4.4.4-6.6.5s-4.5.2-6.8.3c-2.3,0-4.6,0-6.9.2-3.5.2-7.8.8-12.4,1.6-4.6,1-9.4,2.2-14.3,3.6-9.7,2.9-19.1,6.4-25.6,9.1-4,2.8-6.1,5.5-7,7.9C.1,29.4,0,30,0,30.5c0,.6,0,1.1,0,1.7,0,1,.4,2,.9,2.8.9,1.7,2.4,2.9,3.6,3.8,1.2.9,2.2,1.5,2.5,1.5,7,2.8,11.6,2.2,17.6.9,3-.7,6.2-1.6,10.1-2.2,2-.3,4.1-.6,6.4-.9,2.3-.2,4.9-.2,7.6-.2-7.5.2-5.4-2.1.6-4.1s3.2-1,5.1-1.3c1.9-.3,3.9-.6,6-.8,4.2-.3,8.4-.2,12.2,1,10.8,3.4,22.6,1.9,35-.3,3.1-.5,6.2-1.1,9.4-1.7,3.2-.6,6.3-1.2,9.5-1.6,6.4-.8,12.7-1.5,18.8-1.3,6.2.4,12.6-.5,19.9-.7,2.4,0,4.8.3,7.1.4,2.4.1,4.7.2,7.1.3,4.7.1,9.3.1,13.9.1,4.6.1,9.3.2,13.9.1h13.8c9.3.2,18.6.2,28.3.5,9.8.4,19.7.9,30,1.8,10.9.6,20.6-1.5,29.8-2.5,6.7-.1,13.8,1.6,19.2,1.9,8.5.4,16-.3,23.1-1.2-7.9.2-13.7.7-22.5.7-5.9-.1,4.2-3.5,8.2-4.1,1.7-.6,4.1,2.7,5.8,2.2,3.6.1,7-1,10.9-1.6,1.7-.6,1.4,2.3,2.2,2,5.3-.5,9.5-4,12.9-3.1,2.5.5,4.8,1.1,7.1,1.6,1.4.2,2.8.4,4.3.3.9-.2,1.9-.4,2.9-.6-.7-.9-1-2-1.2-3.1,1.4.2,3.3.9,4.7,1.1-1.4-.2-3.3-.9-4.7-1.1.2,1.1.5,2.2,1.2,3.1,7-1.5,15.1-2.8,22.5-3.9v-.3c-4.4.2-8.6-.2-13.1-2,1.9.7,1.7,1.5-.6,1.6-.6-.5-1.1-1-1.7-1.5,3.9-.7,7.8-1.4,11.4.7,0,0,1.7-.6,2.5-.9,1.2.4,1.1,1.3,1.4,2.1.9,0,1.7,0,2.6-.2-1.8-1.5-7.5-3.5-7.5-3.5h0Z"/>
      <path class="st0" d="M356,16.5c.6,0,1.3-.1,2.1-.1-2.8-.2-5.6-.5-8.4-.7,1.4,1.5,3.9,1.2,6.3.9h0Z"/>
    </g>
  </g>
</svg>